<svg xmlns="http://www.w3.org/2000/svg" xmlns:xlink="http://www.w3.org/1999/xlink" width="1200" height="1600" viewBox="0 0 1200 1600" id="lady-teacher"><defs><path id="a" d="M76.625,0 C76.96,2.046 77.135,4.146 77.135,6.287 L77.135,20.47 C77.135,41.77 59.868,59.037 38.567,59.037 C17.267,59.037 0,41.77 0,20.47 L0,6.287 C0,4.146 0.174,2.046 0.51,0 L76.625,0 Z"></path></defs><g fill="none" fill-rule="evenodd" transform="translate(368 115)"><g fill-rule="nonzero" transform="translate(10.145 851)"><path fill="#EDBC3D" d="M287.946972 235C301.616019 235.005264 312.718628 245.979682 312.934156 259.596202L312.937346 260.009624 312.85535 473.009624C312.85003 486.816742 301.652841 498.005314 287.845723 498 274.176677 497.994736 263.074067 487.020318 262.85854 473.403798L262.85535 472.990376 262.93735 259.990376C262.942665 246.183258 274.139854 234.994686 287.946972 235zM154.946972 235C168.616019 235.005264 179.718628 245.979682 179.934156 259.596202L179.937346 260.009624 179.85535 473.009624C179.85003 486.816742 168.652841 498.005314 154.845723 498 141.176677 497.994736 130.074067 487.020318 129.85854 473.403798L129.85535 472.990376 129.93735 259.990376C129.942665 246.183258 141.139854 234.994686 154.946972 235z"></path><g transform="translate(252.868 437.5)"><path fill="#3B3937" d="M61.487,17.5 C57.677,8.74 60.987,1.5 68.987,3.41060513e-13 C100.487,32.5 143.487,35.2 155.987,39.2 L154.987,47.2 L129.987,45.2 C105.487,42.7 65.296,26.26 61.487,17.5 Z"></path><path fill="#1C1B19" d="M2.273,59.98 C2.273,59.98 -1.513,30.2 9.987,18.5 C9.987,18.5 13.487,32 41.487,28 C60.371,25.3 59.987,7.5 59.987,7.5 C85.42,27.33 139.796,35.84 171.233,42.5 C180.301,42.5 187.652,49.85 187.652,58.92 L187.652,67.27 L88.077,67.27 L2.273,59.98 Z"></path><path fill="#ECECEC" d="M89.1031684 14.549592C90.7326338 13.8974367 92.5822527 14.689703 93.234408 16.3191684 93.8632721 17.8904386 93.1490451 19.6664179 91.636186 20.3760167L91.4648316 20.450408 86.1678316 22.570408C84.5383662 23.2225633 82.6887473 22.430297 82.036592 20.8008316 81.4077279 19.2295614 82.1219549 17.4535821 83.634814 16.7439833L83.8061684 16.669592 89.1031684 14.549592zM77.1031684 8.54959196C78.7326338 7.89743667 80.5822527 8.68970303 81.234408 10.3191684 81.8632721 11.8904386 81.1490451 13.6664179 79.636186 14.3760167L79.4648316 14.450408 74.1678316 16.570408C72.5383662 17.2225633 70.6887473 16.430297 70.036592 14.8008316 69.4077279 13.2295614 70.1219549 11.4535821 71.634814 10.7439833L71.8061684 10.669592 77.1031684 8.54959196zM102.103168 19.549592C103.732634 18.8974367 105.582253 19.689703 106.234408 21.3191684 106.863272 22.8904386 106.149045 24.6664179 104.636186 25.3760167L104.464832 25.450408 99.1678316 27.570408C97.5383662 28.2225633 95.6887473 27.430297 95.036592 25.8008316 94.4077279 24.2295614 95.1219549 22.4535821 96.634814 21.7439833L96.8061684 21.669592 102.103168 19.549592zM115.103168 24.549592C116.732634 23.8974367 118.582253 24.689703 119.234408 26.3191684 119.863272 27.8904386 119.149045 29.6664179 117.636186 30.3760167L117.464832 30.450408 112.167832 32.570408C110.538366 33.2225633 108.688747 32.430297 108.036592 30.8008316 107.407728 29.2295614 108.121955 27.4535821 109.634814 26.7439833L109.806168 26.669592 115.103168 24.549592zM128.103168 29.549592C129.732634 28.8974367 131.582253 29.689703 132.234408 31.3191684 132.863272 32.8904386 132.149045 34.6664179 130.636186 35.3760167L130.464832 35.450408 125.167832 37.570408C123.538366 38.2225633 121.688747 37.430297 121.036592 35.8008316 120.407728 34.2295614 121.121955 32.4535821 122.634814 31.7439833L122.806168 31.669592 128.103168 29.549592z"></path><path fill="#D0CEC1" d="M1.059,58.95 L94.809,63.18 L187.987,59.2 L189.469,71.11 C189.93,74.82 187.111,78.12 183.378,78.25 L96.753,81.19 L48.376,81.72 L2.84217094e-14,80.13 L1.059,58.95 Z"></path><path fill="#1C1B19" d="M0.454332107,73.2472733 L0.605667893,69.0127267 L27.5871223,70.0321836 L40.2570879,70.4774161 C53.0251355,70.9015955 62.6222458,71.131375 68.856,71.131375 L70.3936636,71.1265283 C83.4650489,71.0484801 110.710258,70.0418935 122.395574,69.1310864 L123.75533,69.0193515 L124.12267,73.2406485 L122.747858,73.3536678 C110.617383,74.2998768 82.0741188,75.3408489 69.3562001,75.3680791 L67.2820022,75.3642178 C60.1842416,75.3261012 49.4887795,75.0417597 35.3766934,74.5510654 L0.454332107,73.2472733 Z"></path><path fill="#ECEADF" d="M119.987 80.2L121.291 70.6 121.291 66.89 188.487 63.7 189.68 72.35C190.111 75.47 187.735 78.28 184.583 78.37L119.987 80.2zM187.987 59.2C188.787 45.2 177.987 41.2 155.987 39.2 155.987 39.2 152.758 40.01 146.987 47.7 142.487 53.7 141.487 61.2 141.487 61.2L187.987 59.2z"></path></g><g transform="translate(0 437.5)"><path fill="#3B3937" d="M128.243348,17.5 C132.053348,8.74 128.743348,1.5 120.743348,3.41060513e-13 C89.2435477,32.5 46.2435477,35.2 33.7435477,39.2 L34.7435477,47.2 L59.7436477,45.2 C84.2436477,42.7 124.434348,26.26 128.243348,17.5 Z"></path><path fill="#1C1B19" d="M187.457348,59.98 C187.457348,59.98 191.243348,30.2 179.743348,18.5 C179.743348,18.5 176.243348,32 148.243348,28 C129.360348,25.3 129.743348,7.5 129.743348,7.5 C104.310348,27.33 49.9344477,35.84 18.4975477,42.5 C9.42954767,42.5 2.07824767,49.85 2.07824767,58.92 L2.07824767,67.27 L101.653348,67.27 L187.457348,59.98 Z"></path><path fill="#ECECEC" d="M96.4959396 16.3191684C97.1248037 14.7478982 98.8671257 13.955095 100.451816 14.4852176L100.627179 14.549592 105.924179 16.669592C107.553645 17.3217473 108.345911 19.1713662 107.693756 20.8008316 107.064892 22.3721018 105.32257 23.164905 103.737879 22.6347824L103.562516 22.570408 98.2655161 20.450408C96.6360507 19.7982527 95.8437843 17.9486338 96.4959396 16.3191684zM108.49594 10.3191684C109.124804 8.74789822 110.867126 7.95509498 112.451816 8.48521765L112.627179 8.54959196 117.924179 10.669592C119.553645 11.3217473 120.345911 13.1713662 119.693756 14.8008316 119.064892 16.3721018 117.32257 17.164905 115.737879 16.6347824L115.562516 16.570408 110.265516 14.450408C108.636051 13.7982527 107.843784 11.9486338 108.49594 10.3191684zM83.4960473 21.3191492C84.1249216 19.7478831 85.8672487 18.9550912 87.4519355 19.4852242L87.6272985 19.5495997 92.9241985 21.6695997C94.5536596 22.3217656 95.3459139 24.1713897 94.693748 25.8008508 94.0648738 27.3721169 92.3225466 28.1649088 90.7378598 27.6347758L90.5624968 27.5704003 85.2655968 25.4504003C83.6361357 24.7982344 82.8438814 22.9486103 83.4960473 21.3191492zM70.4960319 26.3191876C71.1248857 24.7479133 72.8672026 23.9550988 74.4518962 24.4852111L74.6272601 24.5495843 79.9243601 26.6695843C81.5538297 27.321729 82.3461081 29.1713428 81.6939634 30.8008124 81.0651096 32.3720867 79.3227928 33.1649012 77.7380991 32.6347889L77.5627353 32.5704157 72.2656353 30.4504157C70.6361657 29.798271 69.8438873 27.9486572 70.4960319 26.3191876zM57.4960319 31.3191876C58.1248857 29.7479133 59.8672026 28.9550988 61.4518962 29.4852111L61.6272601 29.5495843 66.9243601 31.6695843C68.5538297 32.321729 69.3461081 34.1713428 68.6939634 35.8008124 68.0651096 37.3720867 66.3227928 38.1649012 64.7380991 37.6347889L64.5627353 37.5704157 59.2656353 35.4504157C57.6361657 34.798271 56.8438873 32.9486572 57.4960319 31.3191876z"></path><path fill="#D0CEC1" d="M188.671348,58.95 L94.9213477,63.18 L1.74324767,59.2 L0.261447669,71.11 C-0.199612331,74.82 2.61974767,78.12 6.35284767,78.25 L92.9773477,81.19 L141.354348,81.72 L189.730348,80.13 L188.671348,58.95 Z"></path><path fill="#1C1B19" d="M189.12468,69.0127267 L189.276016,73.2472733 L162.298781,74.2665799 L154.354735,74.5510326 C139.970936,75.0511837 129.136725,75.3369598 122.043809,75.3661433 L120.375123,75.3680791 L118.796161,75.3601777 C105.42063,75.2587215 78.6062709,74.2614751 66.9640691,73.3522334 L65.6075864,73.2406493 L65.9749089,69.0193507 L67.3347504,69.1310879 C79.1808059,70.0543887 107.01505,71.0760767 119.866761,71.1292104 L121.639501,71.1302743 C127.621598,71.1134139 136.444132,70.9032584 147.957277,70.5273581 L156.40193,70.2393532 L189.12468,69.0127267 Z"></path><path fill="#ECEADF" d="M69.7435477 80.2L68.4393477 70.6 68.4393477 66.89 1.24354767 63.7.0505476694 72.35C-.380252331 75.47 1.99584767 78.28 5.14724767 78.37L69.7435477 80.2zM1.74354767 59.2C.943547669 45.2 11.7435477 41.2 33.7435477 39.2 33.7435477 39.2 36.9729477 40.01 42.7435477 47.7 47.2435477 53.7 48.2435477 61.2 48.2435477 61.2L1.74354767 59.2z"></path></g><path fill="#385B75" d="M221.855348,105 C285.368348,105 336.855348,81.495 336.855348,52.5 C336.855348,23.505 285.368348,0 221.855348,0 C158.342348,0 106.855348,23.505 106.855348,52.5 C106.855348,81.495 158.342348,105 221.855348,105 Z"></path><polygon fill="#385B75" points="213.855 30 333.855 30 323.141 437 265.141 437 248.855 394"></polygon><polygon fill="#385B75" points="229.855 30 109.855 30 120.57 437 178.57 437 194.855 394"></polygon><polygon fill="#5F86A3" points="248.855 408 326.855 408 326.855 437 252.598 437"></polygon><polygon fill="#5F86A3" points="194.855 408 116.855 408 116.855 437 191.112 437"></polygon></g><g fill-rule="nonzero" transform="translate(0 302)"><ellipse cx="232" cy="117" fill="#3D2C18" rx="145" ry="117"></ellipse><path fill="#F2F2F2" d="M164.000028,574.005 L185.000028,143.5 L232.000028,119 L279.500028,143.5 L300.000028,574.005 C300.000028,574.005 252.325028,586 232.000028,586 C211.675028,586 164.000028,574.005 164.000028,574.005 Z"></path><path fill="#EBBAAA" d="M197.000028,95 C197.000028,75.67 212.670028,60 232.000028,60 C251.330028,60 267.000028,75.67 267.000028,95 L267.000028,140 C267.000028,159.33 251.330028,175 232.000028,175 C212.670028,175 197.000028,159.33 197.000028,140 L197.000028,95 Z"></path><path fill="#A1D9EB" d="M57.6796281 211.23C81.8086281 163.476 121.244028 167.08 138.000028 168.889L106.722028 334.399 106.722028 576C-36.6654719 535.551-17.1263719 359.279 57.6796281 211.23zM406.320028 211.23C382.191028 163.476 342.756028 167.08 326.000028 168.889L357.278028 334.399 357.278028 576C500.666028 535.551 481.126028 359.279 406.320028 211.23z"></path><path fill="#8CC9DC" d="M264.004028 708L412.000028 671.8 390.608028 422.978 369.215028 174.155 267.000028 137 244.000028 329.659C252.604028 443.045 264.004028 708 264.004028 708zM199.996028 708L52.0000281 671.8 73.3923281 422.978 94.7845281 174.155 197.000028 137 220.000028 329C211.396028 442.386 199.996028 708 199.996028 708z"></path><polygon fill="#66ABC1" points="243.617 330.654 267 137 338.428 159.882 267 339.5 254 496.5"></polygon><polygon fill="#66ABC1" points="220 329 197 137 123.441 159.882 205.5 323.5 215 406"></polygon><circle cx="192.864" cy="348.528" r="9.878" fill="#66ACC1"></circle><circle cx="184.851" cy="481.526" r="9.878" fill="#66ACC1"></circle><circle cx="190.146" cy="415.526" r="9.878" fill="#66ACC1"></circle><circle cx="178.12" cy="545.948" r="9.878" fill="#66ACC1"></circle><circle cx="172.109" cy="610.78" r="9.878" fill="#66ACC1"></circle></g><g transform="translate(42)"><path fill="#F4D5CC" fill-rule="nonzero" d="M39.9999883,165 C39.9999883,82.1572 107.156988,15 189.999988,15 C272.842988,15 339.999988,82.1573 339.999988,165 L339.999988,233.374 L333.678988,295.495 C326.193988,369.047 264.257988,425 190.325988,425 C117.817988,425 56.6044883,371.121 47.3998883,299.2 L39.9999883,241.38 L39.9999883,165 Z"></path><path fill="#3D2C18" fill-rule="nonzero" d="M298.797988,200.339 C266.670988,169.441 275.197988,77.7434 201.906988,77.7434 C189.146988,77.7434 159.747988,8.9704 201.906988,0 C284.232988,0 326.439988,57.8092 344.511988,102.826 C381.680988,195.418 390.694988,351.839 366.598988,459.649 C356.817988,503.411 361.539988,522.026 354.510988,530 C354.510988,530 319.372988,511.313 280.216988,474.434 C302.813988,393.218 323.897988,244.941 298.797988,200.339 Z"></path><path fill="#3D2C18" fill-rule="nonzero" d="M81.2019883,200.339 C113.328988,169.441 104.801988,77.7434 178.092988,77.7434 C190.852988,77.7434 220.251988,8.9704 178.092988,0 C95.7669883,0 53.5597883,57.8092 35.4883883,102.826 C-1.68141171,195.418 -10.6946117,351.839 13.4008883,459.649 C23.1818883,503.411 18.4603883,522.026 25.4885883,530 C25.4885883,530 60.6269883,511.313 99.7829883,474.434 C77.1859883,393.218 56.1020883,244.941 81.2019883,200.339 Z"></path><path fill="#6E5232" fill-rule="nonzero" d="M158.69661 19.0649637C161.422156 18.6212702 163.991331 20.4710767 164.435025 23.196622 164.878718 25.9221673 163.028912 28.4913429 160.303366 28.9350363L152.436752 30.2287472C150.18212 30.6080668 148.688218 30.874292 147.114339 31.17252L146.749334 31.241976C142.73359 32.0092325 139.738816 32.7354695 136.876994 33.6521588L136.401103 33.8067435C131.971919 35.2654745 127.44666 37.2976157 119.26612 41.4569774 116.804599 42.7085273 113.794561 41.7276523 112.543011 39.2661317 111.291461 36.804611 112.272336 33.7945726 114.733857 32.5430226L115.85875 31.9728335C123.585017 28.0692548 128.252391 25.9875686 132.938165 24.4197398L133.272936 24.3086083C136.369952 23.2886206 139.502706 22.4896487 143.445994 21.6987872L146.568821 21.1018935C149.160946 20.6268076 152.075691 20.1427877 158.69661 19.0649637zM161.155978 37.5118484C163.910858 37.3218566 166.298148 39.4011095 166.48814 42.1559895 166.678132 44.9108696 164.598879 47.2981599 161.843999 47.4881516 149.599578 48.3325945 144.581019 50.1636904 133.131761 57.2513257 130.783819 58.7048139 127.702151 57.9797154 126.248663 55.6317731 124.795174 53.2838307 125.520273 50.2021624 127.868215 48.7486743L129.082255 48.002456C141.038021 40.7093456 147.592667 38.4472491 161.155978 37.5118484z"></path><path fill="#62360D" fill-rule="nonzero" d="M151.982112,156.434718 C155.292663,156.290087 158.09364,158.856573 158.238271,162.167124 C158.379614,165.402434 155.931674,168.151072 152.730408,168.40933 L152.505865,168.423282 L95.2128648,170.926282 C91.902314,171.070913 89.1013363,168.504427 88.956706,165.193876 C88.8153626,161.958566 91.263303,159.209928 94.4645685,158.95167 L94.6891118,158.937718 L151.982112,156.434718 Z"></path><path fill="#000" fill-rule="nonzero" d="M138.80829 202.201325C141.535845 201.770157 144.096496 203.631747 144.527663 206.359302 144.947484 209.015079 143.193632 211.512621 140.583194 212.040247L140.369686 212.078675 113.433686 216.336675C110.706131 216.767843 108.145481 214.906253 107.714313 212.178698 107.294492 209.522921 109.048345 207.025379 111.658782 206.497753L111.87229 206.459325 138.80829 202.201325zM237.182342 203.750123C237.602259 201.094361 240.041026 199.25966 242.686915 199.563043L242.901865 199.592353 269.837865 203.851353C272.565404 204.28262 274.426901 206.843337 273.995635 209.570877 273.575718 212.226639 271.136951 214.06134 268.491061 213.757957L268.276112 213.728647 241.340112 209.469647C238.612572 209.03838 236.751075 206.477663 237.182342 203.750123z"></path><path fill="#000" fill-rule="nonzero" d="M134.487988 195.139C141.013445 195.139 146.322381 200.347544 146.484188 206.834025L146.487988 207.139 146.487988 235.917C146.487988 242.544417 141.115405 247.917 134.487988 247.917 127.962532 247.917 122.653596 242.708456 122.491788 236.221975L122.487988 235.917 122.487988 207.139C122.487988 200.511583 127.860571 195.139 134.487988 195.139zM248.314988 194.531C254.840445 194.531 260.149381 199.739544 260.311188 206.226025L260.314988 206.531 260.314988 235.31C260.314988 241.937417 254.942405 247.31 248.314988 247.31 241.789532 247.31 236.480596 242.101456 236.318788 235.614975L236.314988 235.31 236.314988 206.531C236.314988 199.903583 241.687571 194.531 248.314988 194.531z"></path><path fill="#62360D" fill-rule="nonzero" d="M223.864192,160.201501 C224.062004,156.969151 226.783997,154.491618 229.994716,154.569595 L230.219487,154.579204 L287.460487,158.082204 C290.768008,158.284616 293.285196,161.129978 293.082784,164.437499 C292.884973,167.669849 290.16298,170.147382 286.952261,170.069405 L286.72749,170.059796 L229.48649,166.556796 C226.178969,166.354384 223.661781,163.509022 223.864192,160.201501 Z"></path><path fill="#393939" d="M229.134988,305.604 L229.134988,319.47 C229.134988,340.77 211.867988,358.038 190.566988,358.038 C169.266988,358.038 151.999988,340.77 151.999988,319.47 L151.999988,305.604 L229.134988,305.604 Z"></path><g transform="translate(152 299)"><mask id="b" fill="#fff"><use xlink:href="#a"></use></mask><g fill-rule="nonzero" mask="url(#b)"><g transform="translate(0 4)"><ellipse cx="36.51" cy="55.942" fill="#FF6C6C" rx="23.258" ry="12.667" transform="matrix(-1 0 0 1 73.02 0)"></ellipse><rect width="77.135" height="15.907" y=".604" fill="#FFF" transform="matrix(-1 0 0 1 77.135 0)"></rect></g></g></g><path fill="#EBBAAA" fill-rule="nonzero" d="M186.802561,232.840048 L200.947416,242.269952 C196.139993,249.481086 192.374988,260.305474 192.374988,268.18 C192.374988,275.773019 195.116983,278.964707 203.511743,279.053108 L203.874988,279.055 L203.874988,296.055 C185.331869,296.055 175.374988,284.853509 175.374988,268.18 C175.374988,256.884891 180.073924,243.173754 186.452965,233.370839 L186.802561,232.840048 Z"></path><path fill="#3D2C18" fill-rule="nonzero" d="M302.535988,458.147 C295.381988,436.633 299.554988,390.418 302.535988,370 C280.674988,399.382 281.502988,440 281.502988,458.147 C281.502988,482.309 278.686988,532.848 274.215988,553.764 C279.183988,552.27 291.803988,544.203 302.535988,523.884 C315.950988,498.486 311.479988,485.04 302.535988,458.147 Z"></path><path fill="#3D2C18" fill-rule="nonzero" d="M297.502988 437.5C308.002988 416.853 306.021988 379.418 309.002988 359 287.140988 388.382 284.402988 417.854 273.035988 432 242.502988 470 271.974988 497.584 267.502988 518.5 279.035988 503 282.002988 493 282.002988 471.5 282.002988 442.776 284.655988 462.762 297.502988 437.5zM351.535988 475.147C344.381988 453.633 348.554988 407.418 351.535988 387 329.674988 416.382 276.450988 472.408 296.722988 485.555 316.993988 498.703 327.686988 549.848 323.215988 570.764 328.183988 569.27 340.803988 561.203 351.535988 540.884 364.950988 515.486 360.479988 502.04 351.535988 475.147zM77.4669883 458.147C84.6209883 436.633 80.4479883 390.418 77.4669883 370 99.3279883 399.382 98.4999883 440 98.4999883 458.147 98.4999883 482.309 101.315988 532.848 105.786988 553.764 100.818988 552.27 88.1989883 544.203 77.4669883 523.884 64.0519883 498.486 68.5229883 485.04 77.4669883 458.147z"></path><path fill="#3D2C18" fill-rule="nonzero" d="M82.4999883 437.5C71.9999883 416.853 73.9809883 379.418 70.9999883 359 92.8619883 388.382 95.5999883 417.854 106.966988 432 137.499988 470 108.027988 497.584 112.499988 518.5 100.966988 503 97.9999883 493 97.9999883 471.5 97.9999883 442.776 95.3469883 462.762 82.4999883 437.5zM28.4666883 475.147C35.6213883 453.633 31.4477883 407.418 28.4666883 387 50.3282883 416.382 103.551988 472.408 83.2799883 485.555 63.0089883 498.703 52.3156883 549.848 56.7873883 570.764 51.8188883 569.27 39.1986883 561.203 28.4666883 540.884 15.0515883 515.486 19.5232883 502.04 28.4666883 475.147z"></path><g fill-rule="nonzero" transform="translate(78 189)"><path fill="#060606" fill-opacity=".75" d="M181.5-4L166.5-4C140.818861-4 120 16.818861 120 42.5 120 68.181139 140.818861 89 166.5 89L181.5 89C207.181139 89 228 68.181139 228 42.5L227.994175 41.7647829C227.582639 16.3745525 206.894785-4 181.5-4zM166.5 4L181.5 4C202.525375 4 219.65447 20.8696879 219.994832 41.8620338L220.000131 42.5324048C220.000131 63.762861 202.762861 81 181.5 81L166.5 81C145.237139 81 128 63.762861 128 42.5 128 21.237139 145.237139 4 166.5 4zM57.5-4L42.5-4C17.105215-4-3.58263872 16.3745525-3.99378052 41.7323418L-3.99986874 42.4675952C-3.99986874 68.181139 16.818861 89 42.5 89L57.5 89C83.181139 89 104 68.181139 104 42.5 104 16.818861 83.181139-4 57.5-4zM42.5 4L57.5 4C78.762861 4 96 21.237139 96 42.5 96 63.762861 78.762861 81 57.5 81L42.5 81C21.237139 81 4 63.762861 4 42.5L4.00556255 41.8295926C4.34553028 20.8696879 21.4746247 4 42.5 4z"></path><rect width="30" height="8" x="97" y="31" fill="#423A38"></rect></g></g></g></svg>