<svg xmlns="http://www.w3.org/2000/svg" enable-background="new 0 0 50 50" viewBox="0 0 50 50" id="learning-student"><path fill="#8D5025" d="M38.7365,19.7402c1.6237-0.9192,3.2553-1.8071,4.8227-2.8116h1.9302l0.0043,13.2136
			c0,0.1211-0.0824,0.2475-0.2473,0.3396l-7.4954,4.4409c-0.211,0.1227-0.5054,0.1574-0.7753,0.1205l-0.0027-14.7617
			C37.4859,20.3995,37.8889,20.2201,38.7365,19.7402z"></path><path fill="#874A20" d="M30.1914,18.035c0.3114,0.127,0.5084-0.32,0.3087-0.5304c-0.0148-0.0155-0.0298-0.0313-0.0446-0.0471
			c0.4232,0.1487,0.8495,0.2891,1.2758,0.4288c0.4162,0.2039,0.8329,0.408,1.2542,0.6066c0.9568,0.4511,1.9993,0.7888,2.9217,1.3077
			c0.4567,0.2571,0.7779,0.4145,1.0658,0.4808l0.0027,14.7617c-0.1456-0.0198-0.2858-0.0542-0.398-0.1205l-7.8832-4.562
			c-0.16-0.0923-0.2376-0.2135-0.2376-0.3346l-0.0042-12.9815C28.9929,17.4302,29.5594,17.7775,30.1914,18.035z"></path><path fill="#B0AFB0" d="M20.201,8.8249c0.0285,0.1034,0.688,7.1364,0.6776,10.8029l-0.0282,11.6481l-0.885-0.5109l0.0282-11.6481
				c0.0098-3.4682-0.6211-10.4019-0.6282-10.4267L20.201,8.8249z"></path><path fill="#BFBFBF" d="M21.6201,9.0645c-0.1328-0.7029-0.2057-1.4157-0.2057-2.131V6.8083l-10.7504,6.2484l-0.0056,1.3129
			l9.5446-5.5441c0.0282,0.1012,0.6874,7.1387,0.6761,10.801L20.851,31.2782l1.2114-0.7043l0.0282-13.342
			C22.0979,14.8513,21.8219,10.1319,21.6201,9.0645z"></path><polygon fill="#BFBFBF" points="12.518 24.518 12.513 25.83 20.913 20.947 20.917 19.635"></polygon><polygon fill="#E8E8E8" points="20.917 19.636 12.517 24.519 11.633 24.006 20.032 19.123"></polygon><path fill="#BFBFBF" d="M11.8684,13.6673l-1.2114,0.7039c0.0285,0.1034,0.688,5.4462,0.6776,9.1127l-0.0282,13.3384
						l1.2114-0.7042l0.0282-11.6479C12.5564,20.8035,11.8969,13.7707,11.8684,13.6673z" enable-background="new"></path><path fill="#BFBFBF" d="M15.0498,11.8185l-1.2114,0.704c0.0285,0.1034,0.688,7.1365,0.6776,10.803l1.2114-0.704
						C15.7377,18.9548,15.0783,11.922,15.0498,11.8185z"></path><path fill="#B0AFB0" d="M13.8383,12.5226l-0.7867,0.4569c0.0071,0.0248,0.5892,6.3668,0.5793,9.8352l0.8849,0.5109
						C14.5263,19.6591,13.8669,12.626,13.8383,12.5226z"></path><path fill="#BFBFBF" d="M18.2311,9.9698l-1.2114,0.704c0.0285,0.1034,0.688,7.1365,0.6776,10.803l1.2114-0.704
						C18.9191,17.106,18.2596,10.0732,18.2311,9.9698z"></path><path fill="#B0AFB0" d="M17.0197,10.6738l-0.7867,0.4569c0.0071,0.0248,0.5892,6.3668,0.5793,9.8352l0.8849,0.5109
						C17.7077,17.8103,17.0482,10.7772,17.0197,10.6738z"></path><polygon fill="#E8E8E8" points="21.417 6.81 10.661 13.06 9.588 12.401 20.28 6.151"></polygon><path fill="#B0AFB0" d="M10.6584,14.3695v-1.3071l-1.0691-0.659L9.58,13.0973c-0.0079,0.5956,0.0462,1.1871,0.1588,1.772
				c0.1895,0.9844,0.7187,5.7937,0.7112,8.1039l-0.2803,13.1903l1.1367,0.659l0.0282-13.3365
				C11.3458,19.8179,10.6866,14.4766,10.6584,14.3695z"></path><polygon fill="#BFBFBF" points="19.533 29.931 19.511 41.576 20.722 40.871 20.746 29.931" enable-background="new"></polygon><polygon fill="#B0AFB0" points="18.395 29.785 18.374 40.917 19.511 41.576 19.533 29.931"></polygon><polygon fill="#BFBFBF" points="29.09 24.384 29.068 36.029 30.279 35.325 30.303 24.384" enable-background="new"></polygon><polygon fill="#B0AFB0" points="27.952 24.238 27.931 35.37 29.068 36.029 29.09 24.384"></polygon><polygon fill="#BFBFBF" points="20.651 30.617 20.647 32.066 31.402 25.797 31.407 24.364" enable-background="new"></polygon><polygon fill="#B0AFB0" points="11.335 25.216 11.331 26.666 20.647 32.067 20.652 30.617"></polygon><polygon fill="#E8E8E8" points="31.407 24.364 20.651 30.617 11.335 25.216 22.091 18.963"></polygon><path fill="#3C3C3C" d="M31.8315 39.9459c-2.0072-1.448-1.7437-1.7126-1.9327-2.6306-.1891-.918-2.6892-.1411-2.6892-.1411l-.112 1.777c-.0128.2025.0714.3858.2356.4939.7256.477 2.7808 1.7993 3.3557 1.843C31.3909 41.341 32.9183 40.7297 31.8315 39.9459zM25.9766 43.2817c-2.0072-1.448-1.7437-1.7126-1.9327-2.6306-.1891-.918-2.6892-.1411-2.6892-.1411l-.112 1.777c-.0128.2025.0714.3858.2356.4939.7256.477 2.7808 1.7993 3.3557 1.843C25.5359 44.6768 27.0634 44.0656 25.9766 43.2817z"></path><path fill="#164993" d="M18.1331,21.8647c0,0-0.7908,1.7916,0.7383,2.9807c1.5291,1.1891,8.3842,3.4098,8.3842,3.4098
				s-0.9652,6.7238-0.2577,9.5219c0,0,1.8917,0.7792,3.2652-0.2974c0,0,0.6627-5.6063,0.719-6.1135s0.5546-4.8251-0.1765-5.4801
				c-0.7311-0.655-5.5533-2.9033-7.2143-4.4846C21.9303,19.8202,18.1331,21.8647,18.1331,21.8647z"></path><path fill="#164993" d="M13.9398,22.9384c0,0-0.4933,2.0277,0.7347,3.5243c1.228,1.4966,7.5839,4.4098,7.5839,4.4098
				s-1.4491,6.9711-1.3492,9.892c0,0,2.4197,1.3441,3.7694,0c0,0,0.9891-5.4541,1.1492-5.9452
				c0.16-0.4911,0.9193-4.7562,0.3502-5.5575c-0.5691-0.8013-4.2665-4.5006-5.5401-6.4134
				C19.3641,20.9355,13.9398,22.9384,13.9398,22.9384z"></path><path fill="#E5AE70" d="M18.9765,7.444c-0.9687-2.1734-3.4774-2.6963-3.4774-2.6963s-0.3326,1.1421-0.2639,3.094
				c0.0131,0.373,0.1208,0.7463,0.3553,1.0654c0.3816,0.5191,0.9946,0.862,2.2851,0.724c0.6805-0.0728,1.2345-0.5099,1.2967-1.0738
				C19.2061,8.2506,19.1688,7.8755,18.9765,7.444z"></path><path fill="#55B8E8" d="M22.4129,13.6312c-0.6331-5.4333-1.7782-6.1797-3.4489-6.0843c0,0,0.1519,3.3903-3.58,0.9546
			c0,0-3.1994,1.3412-2.8674,4.3811c0.332,3.0404,0.3352,8.8063,0.1705,10.5885c0,0,5.4849,4.1682,10.9042-2.0698
			C23.5913,21.4014,23.0411,19.0231,22.4129,13.6312z"></path><path fill="#F9C895" d="M19.3896,2.6936c0,0-0.3485,2.6588-0.2584,3.3069s-0.0675,2.457-0.7013,2.4375
		c-0.6338-0.0194-2.4709,0.5457-3.478-1.5054c-0.1832-0.3731-0.5585-0.3596-0.7265-1.4956
		c-0.0762-0.5152,0.5909-3.2952,2.1611-3.1371C17.9568,2.4581,19.3896,2.6936,19.3896,2.6936z"></path><path fill="#492F17" d="M19.3245,3.1897c-0.2743,0.0046-0.7863,0.7386-2.1609,0.3965c-1.3746-0.3425-1.3763,0.3667-1.3763,0.3667
		c0.471,2.9821-0.366,0.9357-0.366,0.9357c-0.9713-0.0159-0.1017,2.6328-0.1017,2.6328c-0.8434-0.1407-1.7434-2.7122-1.3759-4.7428
		c0.3675-2.0301,3.0665-2.1224,4.993-1.2719S20.0254,3.1801,19.3245,3.1897z"></path><path fill="#8D5025" d="M14.2199,33.9031l7.4954-4.4408c0.1648-0.0971,0.2472-0.2183,0.2472-0.3444l0.0049,14.9808
			c0,0.1212-0.0824,0.2474-0.2473,0.3395c0,0-8.0008,4.5983-8.2707,4.5616l-0.0028-14.9792
			C13.7165,34.0563,14.0089,34.0227,14.2199,33.9031z"></path><path fill="#874A20" d="M5.1683,29.3361l7.8784,4.567c0.1138,0.0646,0.2545,0.0982,0.4,0.1174l0.0028,14.9792
			c-0.1456-0.0199-0.2859-0.0542-0.3979-0.1205L5.1683,44.317c-0.16-0.0921-0.2376-0.2133-0.2376-0.3345L4.9258,29.0016
			C4.9258,29.1228,5.0083,29.244,5.1683,29.3361z"></path><path fill="#AA6735" d="M3.9841,29.0806l10.3139,5.9722c0.4218,0.2451,1.1084,0.2458,1.534,0l30.1748-17.8925
		c0.2141-0.1235,0.3208-0.2855,0.3203-0.4473l0.0036,1.2704c0.0005,0.1618-0.1062,0.3238-0.3203,0.4473L15.8356,36.3232
		c-0.4257,0.2458-1.1122,0.2451-1.5341,0L3.9877,30.351c-0.2094-0.1217-0.3143-0.2809-0.3148-0.4404l-0.0036-1.2704
		C3.6697,28.7997,3.7746,28.9589,3.9841,29.0806z"></path><path fill="#CC8B4F" d="M3.9901,28.1926c-0.4257,0.2458-0.4279,0.6428-0.0061,0.888l10.3139,5.9722
			c0.4218,0.2451,1.1084,0.2458,1.534,0l30.1748-17.8925c0.4257-0.2458,0.4268-0.6434,0.005-0.8886l-10.3139-5.9722
			c-0.4218-0.2451-1.1073-0.2452-1.533,0.0006L3.9901,28.1926z"></path><polygon fill="#D7D7D7" points="28.523 24.11 21.504 20.031 21.542 19.98 28.561 24.059"></polygon><path fill="#BFBFBF" d="M28.3632,24.3549l-7.0194-4.0792c0.9443-0.9381,1.8886-1.9123,2.8279-2.4546
				c0.3975-0.2295,0.794-0.3817,1.1893-0.4209l7.0194,4.0792c-0.3953,0.0393-0.7918,0.1914-1.1893,0.4209
				C30.2518,22.4426,29.3075,23.4168,28.3632,24.3549z"></path><path fill="#E8E8E8" d="M28.5611,24.0591l-7.0194-4.0792c1.0078-1.3253,2.0448-2.6897,3.0655-3.279
				c0.1489-0.086,0.2974-0.1555,0.4455-0.2059l7.0194,4.0792c-0.1481,0.0504-0.2966,0.1199-0.4455,0.2059
				C30.6059,21.3694,29.5689,22.7338,28.5611,24.0591z"></path><path fill="#FFF" d="M31.6498,20.104l-0.07,0.04c-1.01,0.5801-2.05,2.27-3.05,3.8999c-0.05,0.0801-0.15,0.23-0.2,0.3198
				l-7.02-4.0801c0.05-0.0898,0.15-0.2397,0.2-0.3198c1-1.6299,2.04-3.3198,3.05-3.8999l0.07-0.04L31.6498,20.104z"></path><path fill="#E8E8E8" d="M24.3454,26.1184l-7.0194-4.0792c0.394-0.4163,0.7904-0.722,1.1878-0.9515
				c0.9272-0.5353,1.8613-0.6568,2.7918-0.8045l7.0194,4.0792c-0.9304,0.1477-1.8645,0.2692-2.7918,0.8045
				C25.1358,25.3964,24.7395,25.702,24.3454,26.1184z"></path><polygon fill="#D7D7D7" points="24.348 26.931 17.328 22.852 17.326 22.039 24.345 26.118"></polygon><path fill="#929393" d="M31.6479,20.1019l0.0001,0.0381l-0.0687,0.0366c-0.9996,0.5771-2.0292,2.2576-3.0233,3.8796
				l-0.033,0.0541l0.0381-0.0512c1.0078-1.3253,2.0448-2.6897,3.0655-3.279c0.1489-0.086,0.2974-0.1555,0.4455-0.2059l-0.005,0.0438
				c-0.1472,0.0499-0.2949,0.1188-0.4431,0.2043c-1.0125,0.5846-2.0442,1.9431-3.0451,3.2615
				c-0.066,0.085-0.1472,0.1874-0.2158,0.271c0.9443-0.9381,1.8886-1.9123,2.8278-2.4546c0.3975-0.2295,0.794-0.3817,1.1893-0.4209
				l0.0023,0.8125l-8.035,4.639l-0.0023-0.8125c0.394-0.4163,0.7904-0.722,1.1878-0.9515c0.9272-0.5353,1.8613-0.6568,2.7918-0.8045
				c0.0507-0.085,0.1573-0.2401,0.208-0.3221c0.9992-1.6308,2.0338-3.3143,3.0462-3.8987L31.6479,20.1019z"></path><path fill="#F9C895" d="M30.2172,15.7235c0,0,0.4416-0.2853-0.046-0.3221c0.0276-0.0368,0.2392-0.3127-0.1195-0.2668
			c0,0-0.6164,0.0921-0.736,0.1105c-0.1104,0.0279-0.736,0.1105-0.0552-0.3221c0,0,0.6716-0.2664,0.4048-0.5332
			c-0.2668-0.2668-0.8556,0.2021-0.9292,0.239c-0.046,0.0368-0.552,0.2942-1.0212,0.4321h-0.0092L23.63,14.9598
			c-0.1932,0.0094-0.3496-0.1563-0.3496-0.3495l-0.0092-1.4442c-0.2886,0.1249-0.5803,0.2529-0.8696,0.3782
			c0.0036,0.0301,0.0077,0.0562,0.0112,0.0867c0.1426,1.2241,0.2808,2.2852,0.4099,3.2061
			c0.0935,0.0135,0.1853,0.0346,0.2829,0.0274l4.2688-0.4879c0.1012,0,0.2392,0.0094,0.414,0.0553
			c0.3312,0.0827,0.4416,0.239,0.782,0.2116c0.3312-0.0184,1.3156-0.2206,1.3156-0.2206s0.3036-0.1473,0.0552-0.3315
			C29.9412,16.0914,30.6956,15.9629,30.2172,15.7235z"></path><path fill="#7BD3F7" d="M22.4128,13.6311c0.0122,0.1056,0.0243,0.2017,0.0364,0.3046c0.5332-0.2772,0.9756-0.5108,1.0053-0.5296
		c0.0088-0.0085,0.0265-0.0175,0.0265-0.0175c0.0708-1.858-0.2743-3.114-0.6546-3.9275c-0.4813-1.0238-1.4914-1.725-2.6179-1.7232
		C21.2179,8.2085,21.9518,9.6743,22.4128,13.6311z"></path><path fill="#F9C895" d="M12.7595,14.0845l2.8788,0.5098c0,0-0.2506,3.0742,0.1768,3.5015c0.3585,0.3588,1.871,1.246,3.0827,2.5039
		c0.392,0.4071,0.867,0.7252,1.3908,0.9376l0.0083,0.0033c0.4798,0.1801,0.8922,0.1724,1.447-0.0674
		c0.5623-0.2548,0.5548,0.0747,0.5548,0.0747c0,0.3749-0.4799,0.4203-0.7798,0.3903c-0.0825-0.0077-0.135,0.0146-0.1724,0.0747
		c-0.0525,0.0974,0.015,0.2402,0.15,0.2402c0.2174,0.0223,0.7947,0.06,1.0796,0.1798c0.1649,0.0677-0.075,1.0946-0.2924,1.3571
		c-0.1949,0.2475-1.4743-0.2021-1.6794-0.2775c-0.3147-0.1157-0.5585-0.1798-0.7412-0.2138c-0.4101-0.0772-0.8-0.2138-1.1628-0.4195
		c-1.4073-0.7995-4.4751-2.656-5.556-4.0599c-0.15-0.2024-0.2174-0.4349-0.2249-0.6824
		C12.8669,17.1994,12.3921,14.6915,12.7595,14.0845z"></path><path fill="#7BD3F7" d="M12.4532 15.6874c.778 1.0303 3.387.504 3.387.504.8926-4.2105-.4961-5.892-1.1597-6.0976C11.5222 9.1093 12.4532 15.6874 12.4532 15.6874zM41.6619 16.2194l-3.7645 2.2198-.026.0127c-.0519.0393-.0909.1166-.0909.1819 0 .026.013.052.026.0647l-5.3743-3.0634c-.026-.0127-.0389-.0393-.0389-.0647 0-.0653.0519-.1433.1038-.1692l.026-.026 3.7646-2.2198L41.6619 16.2194z"></path><path fill="#EE4541" d="M41.1228,16.5393l-5.3953-3.0485l0.5623-0.3318c0.0176-0.0119,0.0325-0.0383,0.0336-0.0595
						l-0.011-0.8562l5.3771,3.0578l0.01,0.8578c0.0015,0.0205-0.0143,0.0486-0.0327,0.0578L41.1228,16.5393z"></path><path fill="#90684B" d="M36.3026,12.2222l5.3779,3.0588c0.0058,0.0033,0.0095,0.0102,0.0097,0.0202l-5.3779-3.0588
						C36.3122,12.2325,36.3084,12.2256,36.3026,12.2222z"></path><path fill="#FFF" d="M36.3026,12.2222l5.3779,3.0588c-0.0063-0.0036-0.0151-0.0029-0.0245,0.0026l-5.3779-3.0588
						C36.2875,12.2193,36.2963,12.2186,36.3026,12.2222z"></path><polygon fill="#F1F1F1" points="37.657 18.303 32.522 15.381 32.51 14.447 37.646 17.369"></polygon><path fill="#E8E8E8" d="M37.6573,18.303l-0.0113-0.934l3.7677-2.2223c0.0181-0.0107,0.0339-0.0032,0.0342,0.0176l0.0104,0.8575
						c0.0003,0.0208-0.0152,0.0482-0.0333,0.0589L37.6573,18.303z"></path><path fill="#0092BF" d="M37.8771,18.6873c-0.0554,0.0327-0.1007,0.006-0.1014-0.058c-0.0008-0.064,0.0432-0.1418,0.0986-0.1745
						l0.0253-0.0149l3.7677-2.2223c0.0181-0.0107,0.0335-0.038,0.0333-0.0589l-0.0104-0.8575
						c-0.0003-0.0208-0.0161-0.0283-0.0342-0.0176l-3.793,2.2372c-0.0554,0.0327-0.1006,0.006-0.1014-0.058
						c-0.0008-0.064,0.0432-0.1418,0.0986-0.1745l3.793-2.2372c0.1289-0.076,0.2352-0.0168,0.237,0.1321l0.0104,0.8575
						c0.0018,0.1489-0.1015,0.3332-0.2305,0.4093L37.8771,18.6873z"></path><path fill="#BC2B3B" d="M41.6701,16.4501c0.1289-0.076,0.2323-0.2603,0.2305-0.4093l-0.0104-0.8575
			c-0.0018-0.1489-0.1081-0.2081-0.237-0.1321l-0.5445,0.3222l0.0028,0.2325l0.5445-0.3222
			c0.0181-0.0107,0.0339-0.0032,0.0342,0.0176l0.0104,0.8575c0.0002,0.0208-0.0152,0.0482-0.0333,0.0589l-0.5445,0.3222
			l0.0028,0.2324L41.6701,16.4501z"></path><path fill="#7BD3F7" d="M36.4423,11.9748c-0.0429-0.0241-0.1017-0.0203-0.1665,0.0171l-3.7925,2.2375
		c-0.056,0.0336-0.0999,0.1116-0.1006,0.1743c0.0009,0.033,0.0125,0.0551,0.0307,0.0653l5.3788,3.059
		c-0.0182-0.0108-0.0298-0.0323-0.0307-0.0659c-0.001-0.0634,0.0429-0.1413,0.098-0.173l3.7941-2.2369
		c0.064-0.0399,0.1245-0.0431,0.1675-0.019L36.4423,11.9748z"></path><path fill="#EE4541" d="M41.1087,15.3734l0.5449-0.3212c0.064-0.0401,0.1245-0.043,0.1675-0.0187l-5.3788-3.0587
		c-0.0429-0.0242-0.1018-0.0205-0.1665,0.0171l-0.5635,0.3326L41.1087,15.3734z"></path><g><path fill="#80BC41" d="M41.6619,14.2733l-3.7645,2.2198l-0.026,0.0127c-0.0519,0.0393-0.0909,0.1166-0.0909,0.1819
						c0,0.026,0.013,0.052,0.026,0.0647l-5.3743-3.0634c-0.026-0.0127-0.0389-0.0393-0.0389-0.0647
						c0-0.0653,0.0519-0.1433,0.1038-0.1692l0.026-0.026l3.7646-2.2198L41.6619,14.2733z"></path><path fill="#EE4541" d="M41.1228,14.5932l-5.3953-3.0485l0.5623-0.3318c0.0176-0.0119,0.0325-0.0383,0.0336-0.0595
						l-0.011-0.8562l5.3771,3.0578l0.01,0.8578c0.0015,0.0205-0.0143,0.0486-0.0327,0.0578L41.1228,14.5932z"></path><path fill="#90684B" d="M36.3026,10.2761l5.3779,3.0588c0.0058,0.0033,0.0095,0.0102,0.0097,0.0202l-5.3779-3.0588
						C36.3122,10.2864,36.3084,10.2795,36.3026,10.2761z"></path><path fill="#FFF" d="M36.3026,10.2761l5.3779,3.0588c-0.0063-0.0036-0.0151-0.0029-0.0245,0.0026l-5.3779-3.0588
						C36.2875,10.2732,36.2963,10.2726,36.3026,10.2761z"></path><polygon fill="#F1F1F1" points="37.657 16.357 32.522 13.435 32.51 12.501 37.646 15.423"></polygon><path fill="#E8E8E8" d="M37.6573,16.3569l-0.0113-0.934l3.7677-2.2223c0.0181-0.0107,0.0339-0.0032,0.0342,0.0176
						l0.0104,0.8575c0.0003,0.0208-0.0152,0.0482-0.0333,0.0589L37.6573,16.3569z"></path><path fill="#589441" d="M37.8771,16.7412c-0.0554,0.0327-0.1007,0.006-0.1014-0.058c-0.0008-0.064,0.0432-0.1418,0.0986-0.1745
						l0.0253-0.0149l3.7677-2.2223c0.0181-0.0107,0.0335-0.038,0.0333-0.0589l-0.0104-0.8575
						c-0.0003-0.0208-0.0161-0.0283-0.0342-0.0176l-3.793,2.2372c-0.0554,0.0327-0.1006,0.006-0.1014-0.058
						c-0.0008-0.064,0.0432-0.1418,0.0986-0.1745l3.793-2.2372c0.1289-0.076,0.2352-0.0168,0.237,0.1321l0.0104,0.8575
						c0.0018,0.1489-0.1015,0.3332-0.2305,0.4093L37.8771,16.7412z"></path></g><path fill="#BC2B3B" d="M41.6701,14.504c0.1289-0.076,0.2323-0.2603,0.2305-0.4093l-0.0104-0.8575
			c-0.0018-0.1489-0.1081-0.2081-0.237-0.1321l-0.5445,0.3222l0.0028,0.2325l0.5445-0.3222
			c0.0181-0.0107,0.0339-0.0032,0.0342,0.0176l0.0104,0.8575c0.0002,0.0208-0.0152,0.0482-0.0333,0.0589l-0.5445,0.3222
			l0.0028,0.2324L41.6701,14.504z"></path><path fill="#80BC41" d="M36.4423,10.0287c-0.0429-0.0241-0.1017-0.0203-0.1665,0.0171l-3.7925,2.2375
		c-0.056,0.0336-0.0999,0.1116-0.1006,0.1743c0.0009,0.033,0.0125,0.0551,0.0307,0.0653l5.3788,3.059
		c-0.0182-0.0108-0.0298-0.0323-0.0307-0.0659c-0.001-0.0634,0.0429-0.1413,0.098-0.173l3.7941-2.2369
		c0.064-0.0399,0.1245-0.0431,0.1675-0.019L36.4423,10.0287z"></path><path fill="#EE4541" d="M41.1087,13.4273l0.5449-0.3212c0.064-0.0401,0.1245-0.043,0.1675-0.0187l-5.3788-3.0587
		c-0.0429-0.0242-0.1018-0.0205-0.1665,0.0171l-0.5635,0.3326L41.1087,13.4273z"></path><g><path fill="#FEE44B" d="M41.6619,12.3273l-3.7645,2.2198l-0.026,0.0127c-0.0519,0.0393-0.0909,0.1166-0.0909,0.1819
						c0,0.026,0.013,0.052,0.026,0.0647l-5.3743-3.0634c-0.026-0.0127-0.0389-0.0393-0.0389-0.0647
						c0-0.0653,0.0519-0.1433,0.1038-0.1692l0.026-0.026l3.7646-2.2198L41.6619,12.3273z"></path><path fill="#EE4541" d="M41.1228,12.6471l-5.3953-3.0485l0.5623-0.3318c0.0176-0.0119,0.0325-0.0383,0.0336-0.0595
						l-0.011-0.8562l5.3771,3.0578l0.01,0.8578c0.0015,0.0205-0.0143,0.0486-0.0327,0.0578L41.1228,12.6471z"></path><path fill="#90684B" d="M36.3026,8.3301l5.3779,3.0588c0.0058,0.0033,0.0095,0.0102,0.0097,0.0202l-5.3779-3.0588
						C36.3122,8.3403,36.3084,8.3334,36.3026,8.3301z"></path><path fill="#FFF" d="M36.3026,8.3301l5.3779,3.0588c-0.0063-0.0036-0.0151-0.0029-0.0245,0.0026l-5.3779-3.0588
						C36.2875,8.3271,36.2963,8.3265,36.3026,8.3301z"></path><polygon fill="#F1F1F1" points="37.657 14.411 32.522 11.489 32.51 10.555 37.646 13.477"></polygon><path fill="#E8E8E8" d="M37.6573,14.4108l-0.0113-0.934l3.7677-2.2223c0.0181-0.0107,0.0339-0.0032,0.0342,0.0176
						l0.0104,0.8575c0.0003,0.0208-0.0152,0.0482-0.0333,0.0589L37.6573,14.4108z"></path><path fill="#D1A62D" d="M37.8771,14.7951c-0.0554,0.0327-0.1007,0.006-0.1014-0.058c-0.0008-0.064,0.0432-0.1418,0.0986-0.1745
						l0.0253-0.0149l3.7677-2.2223c0.0181-0.0107,0.0335-0.038,0.0333-0.0589l-0.0104-0.8575
						c-0.0003-0.0208-0.0161-0.0283-0.0342-0.0176l-3.793,2.2372c-0.0554,0.0327-0.1006,0.006-0.1014-0.058
						c-0.0008-0.064,0.0432-0.1418,0.0986-0.1745l3.793-2.2372c0.1289-0.076,0.2352-0.0168,0.237,0.1321l0.0104,0.8575
						c0.0018,0.1489-0.1015,0.3332-0.2305,0.4093L37.8771,14.7951z"></path></g><path fill="#BC2B3B" d="M41.6701,12.5579c0.1289-0.076,0.2323-0.2603,0.2305-0.4093l-0.0104-0.8575
			c-0.0018-0.1489-0.1081-0.2081-0.237-0.1321l-0.5445,0.3222l0.0028,0.2325l0.5445-0.3222
			c0.0181-0.0107,0.0339-0.0032,0.0342,0.0176l0.0104,0.8575c0.0002,0.0208-0.0152,0.0482-0.0333,0.0589l-0.5445,0.3222
			l0.0028,0.2324L41.6701,12.5579z"></path><path fill="#FEE44B" d="M36.4423,8.0826c-0.0429-0.0241-0.1017-0.0203-0.1665,0.0171l-3.7925,2.2375
		c-0.056,0.0336-0.0999,0.1116-0.1006,0.1743c0.0009,0.033,0.0125,0.0551,0.0307,0.0653l5.3788,3.059
		c-0.0182-0.0108-0.0298-0.0323-0.0307-0.0659c-0.001-0.0634,0.0429-0.1413,0.098-0.173l3.7941-2.2369
		c0.064-0.0399,0.1245-0.0431,0.1675-0.019L36.4423,8.0826z"></path><path fill="#EE4541" d="M41.1087,11.4812l0.5449-0.3212c0.064-0.0401,0.1245-0.043,0.1675-0.0187l-5.3788-3.0587
		c-0.0429-0.0242-0.1018-0.0205-0.1665,0.0171l-0.5635,0.3326L41.1087,11.4812z"></path></svg>